<svg width="256" height="256" viewBox="0 0 256 256" fill="none" xmlns="http://www.w3.org/2000/svg">
<g clip-path="url(#clip0_114_2)">
<circle cx="128" cy="128" r="128" fill="#171717"/>
<path fill-rule="evenodd" clip-rule="evenodd" d="M37 218.017V123.645C37 113.914 41.7205 104.787 49.6624 99.1625L124.979 45.8271C140.184 35.0593 160.527 43.4019 165.077 60.0296C173.279 62.3762 180.244 68.6736 182.889 77.3267C190.994 79.9039 197.776 86.365 200.173 95.1264C210.659 98.1264 219.124 107.584 219.124 120.165V217.891C217.819 219.214 216.485 220.508 215.124 221.774V120.165C215.124 110.289 208.96 102.689 200.985 99.6141C201.062 100.442 201.101 101.285 201.101 102.142V233.086C199.786 234.003 198.452 234.896 197.101 235.764V102.142C197.101 100.874 197 99.6425 196.805 98.4536C192.633 97.7244 188.2 98.1879 184.027 100.114V243.119C182.707 243.763 181.373 244.385 180.027 244.984V102.482L166.005 112.412V248.107C166.005 248.847 165.959 249.581 165.87 250.305C164.449 250.745 163.017 251.16 161.575 251.551C161.857 250.438 162.005 249.282 162.005 248.107V115.245L105.094 155.546C98.2106 160.421 94.1195 168.331 94.1195 176.765V251.468C92.7773 251.101 91.4438 250.712 90.1195 250.302V176.765C90.1195 167.033 94.84 157.906 102.782 152.282L162.005 110.343V84.4593L87.0709 137.524C80.1879 142.398 76.0968 150.308 76.0968 158.742V245.04C74.7511 244.442 73.4176 243.822 72.0968 243.179V158.742C72.0968 149.011 76.8173 139.883 84.7593 134.259L160.076 80.924C160.71 80.4746 161.354 80.0585 162.005 79.6749V67.0456C162.005 65.7768 161.903 64.5457 161.709 63.3568C156.304 62.4121 150.461 63.469 145.313 67.1142L69.9968 120.45C63.1138 125.324 59.0227 133.234 59.0227 141.668V235.843C57.6718 234.977 56.3383 234.087 55.0227 233.172V141.668C55.0227 131.936 59.7432 122.809 67.6851 117.185L143.001 63.8498C148.52 59.9422 154.714 58.5513 160.585 59.1598C155.751 46.4075 139.548 40.4114 127.29 49.0915L51.9741 102.427C45.0911 107.301 41 115.211 41 123.645V221.889C39.6388 220.627 38.3052 219.336 37 218.017ZM183.851 81.9557C189.143 84.2598 193.534 88.5916 195.682 94.2567C191.842 93.8587 187.864 94.3159 184.027 95.7731V85.0683C184.027 84.0079 183.967 82.9697 183.851 81.9557ZM180.027 85.0683V97.6976C179.376 98.0812 178.733 98.4973 178.098 98.9467L166.005 107.511V82.0911C170.447 80.0409 175.184 79.648 179.587 80.5869C179.875 82.0186 180.027 83.5153 180.027 85.0683ZM178.252 76.3023C175.865 70.7625 171.293 66.6006 165.889 64.5173C165.965 65.3448 166.005 66.1879 166.005 67.0456V77.7504C170.039 76.2181 174.23 75.7915 178.252 76.3023Z" fill="white"/>
</g>
<defs>
<clipPath id="clip0_114_2">
<rect width="256" height="256" fill="white"/>
</clipPath>
</defs>
</svg>
